Coordinates
version=1
nRows=12
nColumns=33
inDegrees=yes

Units are S.I. units (second, meters, Newtons, ...)
Angles are in degrees.

endheader
time	ground_thorax_rot_x	ground_thorax_rot_y	ground_thorax_rot_z	ground_thorax_tx	ground_thorax_ty	ground_thorax_tz	clav_prot_r	clav_elev_r	scapula_abduction_r	scapula_elevation_r	scapula_upward_rot_r	scapula_winging_r	shoulder_elv_r	plane_of_elev_r	axial_rot_r	elbow_flexion_r	pro_sup_r	wrist_flex_r	wrist_dev_r	clav_prot_l	clav_elev_l	scapula_abduction_l	scapula_elevation_l	scapula_upward_rot_l	scapula_winging_l	shoulder_elv_l	plane_of_elev_l	axial_rot_l	elbow_flexion_l	pro_sup_l	wrist_flex_l	wrist_dev_l
      1.99000000	     38.25163491	      3.20743958	      9.27917905	   -107.69880092	    798.42184521	      3.19729900	     16.58630048	     42.82630297	     45.00000000	     45.00000000	    -27.77067668	   2076.54665163	  -1912.34819087	    146.79142178	   -123.72432884	   1822.58893789	    201.16745917	      8.39123974	      3.56632863	     10.79449125	    -45.00000000	    -45.00000000	     45.00000000	    -29.16535624	  -2073.31687088	   -269.51154057	     18.95403989	   -179.99999979	   1794.69501824	    147.83634964	      8.41900274	    -11.92890707
      2.00000000	     38.32794826	      2.74238152	      8.67666230	   -101.82126539	    796.43719346	      3.27533006	     16.25557251	     42.79353149	     45.00000000	     45.00000000	    -26.61659227	   2077.02032119	  -1912.67173329	    146.82964388	   -123.83070952	   1822.20234102	    203.73739841	      8.12749547	      3.23470511	     10.04429765	    -45.00000000	    -45.00000000	     45.00000000	    -27.12378390	  -2073.68984421	   -270.09480973	     19.04187025	   -179.99999979	   1795.18485507	    151.39380486	      8.65530236	    -11.69514436
      2.01000000	     38.34732310	      3.12014914	      8.99642919	    -96.09376589	    794.59181519	      3.35955324	     16.19146731	     43.14996358	     45.00000000	     45.00000000	    -26.41639637	   2077.20641608	  -1913.13243274	    146.69984993	   -122.46194233	   1821.83106975	    205.15774488	      8.05265429	      3.15872447	     10.26326511	    -45.00000000	    -45.00000000	     45.00000000	    -26.83573880	  -2074.47535957	   -270.33722751	     18.64946404	   -179.99999979	   1795.55066336	    153.99010598	      8.24822215	    -12.25041399
      2.02000000	     38.40322658	      2.80174916	      8.56393119	    -90.53837734	    792.91774610	      3.44835161	     16.28443169	     43.33347200	     45.00000000	     45.00000000	    -25.60903406	   2077.76093681	  -1913.38939547	    146.74584166	   -121.92656958	   1821.48470928	    206.88796917	      7.88422700	      2.95136276	      9.97359064	    -45.00000000	    -45.00000000	     45.00000000	    -25.25062614	  -2074.99720588	   -270.80574254	     18.56410340	   -179.99999979	   1796.08209689	    156.68686772	      8.23418034	    -12.27672543
      2.03000000	     38.46344915	      2.57862240	      8.19439387	    -85.18077588	    791.44944322	      3.53941696	     16.26740061	     43.47443575	     45.00000000	     45.00000000	    -24.87449695	   2078.28556663	  -1913.66530303	    146.83912647	   -121.39068588	   1821.08695818	    208.76066531	      7.72003597	      2.79085760	      9.62967747	    -45.00000000	    -45.00000000	     45.00000000	    -23.78136658	  -2075.50225930	   -271.29707462	     18.44053262	   -179.99999979	   1796.64043079	    159.39396220	      8.21029548	    -12.31196288
      2.04000000	     38.54742494	      2.31255899	      7.80639991	    -80.04350039	    790.21043980	      3.63123152	     16.24129177	     43.55978419	     45.00000000	     45.00000000	    -24.10797445	   2078.76850148	  -1913.92529811	    146.94686396	   -120.62181149	   1820.72827522	    210.83757092	      7.53967998	      2.70919099	      9.32942450	    -45.00000000	    -45.00000000	     45.00000000	    -22.36113058	  -2075.99258383	   -271.77525324	     18.34125243	   -179.99999979	   1797.21428388	    161.96328870	      8.16104368	    -12.35211432
      2.05000000	     38.65830807	      2.03536869	      7.40529360	    -75.15698497	    789.22939699	      3.72395500	     16.09399312	     43.72516902	     45.00000000	     45.00000000	    -23.24903642	   2079.20099297	  -1914.28587839	    147.03561707	   -119.78521180	   1820.24533737	    213.02097672	      7.34109995	      2.57994392	      9.02286407	    -45.00000000	    -45.00000000	     45.00000000	    -21.18061843	  -2076.50290885	   -272.14761633	     18.21470300	   -179.99999979	   1797.72450709	    164.33183997	      8.06436357	    -12.42786253
      2.06000000	     38.77442765	      1.74525904	      6.99332254	    -70.55768955	    788.53014502	      3.81863945	     15.98952147	     43.91004864	     45.00000000	     45.00000000	    -22.39993665	   2079.53032525	  -1914.59669826	    147.13044205	   -118.86106413	   1819.84963162	    215.41424877	      7.13506531	      2.57295683	      8.73989997	    -45.00000000	    -45.00000000	     45.00000000	    -19.98554261	  -2077.00291417	   -272.54494213	     18.04236201	   -179.99999979	   1798.09295550	    166.47394181	      7.93664554	    -12.54528783
      2.07000000	     38.88885030	      1.37288203	      6.43485872	    -66.27521402	    788.12422380	      3.91726231	     15.87856537	     44.05660822	     45.00000000	     45.00000000	    -21.46464290	   2079.91696702	  -1914.90189197	    147.27219762	   -117.87710228	   1819.36491533	    218.27108479	      6.89489833	      2.61056499	      8.37763529	    -45.00000000	    -45.00000000	     45.00000000	    -18.72364310	  -2077.46528397	   -272.89526384	     17.94854264	   -179.99999979	   1798.44649946	    168.44544923	      7.82982281	    -12.61126235
      2.08000000	     38.97423336	      1.24641290	      6.16053221	    -62.32573228	    788.00807451	      4.02093091	     15.70402771	     44.28181711	     45.00000000	     45.00000000	    -20.90109387	   2080.18880350	  -1915.22040781	    147.35139440	   -116.77916424	   1818.89085219	    221.05601730	      6.71523618	      2.75175515	      8.21895628	    -45.00000000	    -45.00000000	     45.00000000	    -18.04813342	  -2078.01243973	   -273.04441722	     17.74836044	   -179.99999979	   1798.71610418	    170.00769658	      7.64218917	    -12.73406447
      2.09000000	     39.07014934	      1.60540752	      6.37683989	    -58.73140380	    788.16331723	      4.12894616	     14.83292408	     43.57489740	     45.00000000	     45.00000000	    -21.19649845	   2080.31915136	  -1915.40363111	    147.20054302	   -115.95505193	   1818.56629534	    222.82565087	      6.55042591	      2.54631876	      8.38009919	    -45.00000000	    -45.00000000	     45.00000000	    -19.31911168	  -2078.36493411	   -272.76759593	     18.33552685	   -179.99999979	   1799.07504613	    171.25184328	      7.62871020	    -12.49560517
      2.10000000	     39.19356460	      1.28743999	      5.91634088	    -55.48392834	    788.55644114	      4.23970012	     14.96686634	     43.80321346	     45.00000000	     44.96751037	    -20.33232991	   2080.56352697	  -1915.63705250	    147.34041294	   -115.16699102	   1818.14876360	    224.91725575	      6.45454241	      2.70798890	      8.32290814	    -45.00000000	    -45.00000000	     45.00000000	    -18.48254477	  -2078.75025869	   -272.97732638	     18.15780250	   -179.99999979	   1799.00957231	    172.20155580	      7.48205631	    -12.66680067
